<mxfile host="app.diagrams.net" modified="2021-01-22T13:03:17.372Z" agent="5.0 (Macintosh; Intel Mac OS X 11_0_1) AppleWebKit/537.36 (KHTML, like Gecko) Chrome/87.0.4280.141 Safari/537.36" etag="9tqPguEPOk17PI_CDpXz" version="14.2.6" type="github">
  <diagram id="dGNWReX4-PdzedT3Ty0_" name="第 1 页">
    <mxGraphModel dx="856" dy="561" grid="1" gridSize="10" guides="1" tooltips="1" connect="1" arrows="1" fold="1" page="1" pageScale="1" pageWidth="827" pageHeight="1169" math="0" shadow="0">
      <root>
        <mxCell id="0" />
        <mxCell id="1" parent="0" />
        <mxCell id="hD5_cvBa2tkCcgQeZO3l-1" value="&lt;font style=&quot;font-size: 18px&quot;&gt;2&lt;/font&gt;" style="rounded=0;whiteSpace=wrap;html=1;strokeWidth=2;" vertex="1" parent="1">
          <mxGeometry x="50" y="40" width="70" height="50" as="geometry" />
        </mxCell>
        <mxCell id="hD5_cvBa2tkCcgQeZO3l-2" value="&lt;font style=&quot;font-size: 18px&quot;&gt;3&lt;/font&gt;" style="rounded=0;whiteSpace=wrap;html=1;strokeWidth=2;" vertex="1" parent="1">
          <mxGeometry x="120" y="40" width="70" height="50" as="geometry" />
        </mxCell>
        <mxCell id="hD5_cvBa2tkCcgQeZO3l-3" value="&lt;font style=&quot;font-size: 18px&quot;&gt;1&lt;/font&gt;" style="rounded=0;whiteSpace=wrap;html=1;strokeWidth=2;" vertex="1" parent="1">
          <mxGeometry x="190" y="40" width="70" height="50" as="geometry" />
        </mxCell>
        <mxCell id="hD5_cvBa2tkCcgQeZO3l-4" value="&lt;font style=&quot;font-size: 18px&quot;&gt;0&lt;/font&gt;" style="rounded=0;whiteSpace=wrap;html=1;strokeWidth=2;" vertex="1" parent="1">
          <mxGeometry x="260" y="40" width="70" height="50" as="geometry" />
        </mxCell>
        <mxCell id="hD5_cvBa2tkCcgQeZO3l-5" value="&lt;font style=&quot;font-size: 18px&quot;&gt;2&lt;/font&gt;" style="rounded=0;whiteSpace=wrap;html=1;strokeWidth=2;" vertex="1" parent="1">
          <mxGeometry x="330" y="40" width="70" height="50" as="geometry" />
        </mxCell>
        <mxCell id="hD5_cvBa2tkCcgQeZO3l-6" value="&lt;font style=&quot;font-size: 18px&quot;&gt;5&lt;/font&gt;" style="rounded=0;whiteSpace=wrap;html=1;strokeWidth=2;" vertex="1" parent="1">
          <mxGeometry x="400" y="40" width="70" height="50" as="geometry" />
        </mxCell>
        <mxCell id="hD5_cvBa2tkCcgQeZO3l-7" value="&lt;font style=&quot;font-size: 18px&quot;&gt;3&lt;/font&gt;" style="rounded=0;whiteSpace=wrap;html=1;strokeWidth=2;" vertex="1" parent="1">
          <mxGeometry x="470" y="40" width="70" height="50" as="geometry" />
        </mxCell>
        <mxCell id="hD5_cvBa2tkCcgQeZO3l-8" value="&lt;font style=&quot;font-size: 18px&quot;&gt;nums[i]&lt;/font&gt;" style="text;html=1;resizable=0;autosize=1;align=center;verticalAlign=middle;points=[];fillColor=none;strokeColor=none;rounded=0;" vertex="1" parent="1">
          <mxGeometry x="570" y="55" width="70" height="20" as="geometry" />
        </mxCell>
        <mxCell id="hD5_cvBa2tkCcgQeZO3l-10" value="&lt;font style=&quot;font-size: 24px&quot;&gt;i&lt;/font&gt;" style="text;html=1;resizable=0;autosize=1;align=center;verticalAlign=middle;points=[];fillColor=none;strokeColor=none;rounded=0;" vertex="1" parent="1">
          <mxGeometry x="590" y="115" width="20" height="20" as="geometry" />
        </mxCell>
        <mxCell id="hD5_cvBa2tkCcgQeZO3l-11" value="&lt;font style=&quot;font-size: 18px&quot;&gt;1&lt;/font&gt;" style="text;html=1;resizable=0;autosize=1;align=center;verticalAlign=middle;points=[];fillColor=none;strokeColor=none;rounded=0;" vertex="1" parent="1">
          <mxGeometry x="70" y="110" width="30" height="20" as="geometry" />
        </mxCell>
        <mxCell id="hD5_cvBa2tkCcgQeZO3l-12" value="&lt;font style=&quot;font-size: 18px&quot;&gt;1&lt;/font&gt;" style="text;html=1;resizable=0;autosize=1;align=center;verticalAlign=middle;points=[];fillColor=none;strokeColor=none;rounded=0;" vertex="1" parent="1">
          <mxGeometry x="140" y="110" width="30" height="20" as="geometry" />
        </mxCell>
        <mxCell id="hD5_cvBa2tkCcgQeZO3l-13" value="&lt;font style=&quot;font-size: 18px&quot;&gt;1&lt;/font&gt;" style="text;html=1;resizable=0;autosize=1;align=center;verticalAlign=middle;points=[];fillColor=none;strokeColor=none;rounded=0;" vertex="1" parent="1">
          <mxGeometry x="220" y="110" width="30" height="20" as="geometry" />
        </mxCell>
      </root>
    </mxGraphModel>
  </diagram>
</mxfile>
